<?xml version="1.0" encoding="utf-8"?>
<!-- Generator: Adobe Illustrator 24.0.1, SVG Export Plug-In . SVG Version: 6.00 Build 0)  -->
<svg version="1.1" xmlns="http://www.w3.org/2000/svg" xmlns:xlink="http://www.w3.org/1999/xlink" x="0px" y="0px"
	 viewBox="0 0 595.28 595.28" style="enable-background:new 0 0 595.28 595.28;" xml:space="preserve">
<style type="text/css">
	.st0{fill:#ED1C24;}
	.st1{fill:#FFFFFF;}
</style>
<g id="ESCUDO">
	<g>
		<g>
			<g>
				<path class="st1" d="M298.11,540.57l-7.37-3.9c-41.49-21.96-100.97-62.17-148.66-129.06c-57.15-80.17-83.04-177.96-76.95-290.64
					l0.81-14.92h14.94c22.81,0,43.52-11.56,55.4-30.93l10.45-17.04l14.14,14.13c16.84,16.83,39.23,26.1,63.04,26.1
					c23.83,0,46.23-9.28,63.07-26.12l11.15-11.15l11.15,11.15c16.85,16.85,39.24,26.12,63.06,26.12c23.81,0,46.2-9.27,63.04-26.1
					l14.14-14.13l10.45,17.04c11.88,19.36,32.59,30.93,55.4,30.93h14.94l0.81,14.92c6.09,112.68-19.8,210.47-76.96,290.64
					c-47.68,66.88-107.17,107.1-148.67,129.05L298.11,540.57z"/>
			</g>
			<g>
				<path class="st0" d="M515.37,117.82c-29.16,0-54.7-15.39-68.84-38.45c-40.99,40.96-107.43,40.95-148.4-0.03
					c-21.74,21.74-50.64,31.95-79.12,30.63l253.55,236.44C501.9,287.45,520.48,212.44,515.37,117.82z"/>
				<path class="st0" d="M298.11,522.39c25.09-13.27,57.65-33.48,89.93-63.44L80.55,172.22
					C89.92,384.64,225.39,483.91,298.11,522.39z"/>
			</g>
			<g>
				<path d="M316.48,337.32c-1.72-4.02-4.46-9.93-5.32-17.2l-8.73-74.06c-0.17-1.69,0.1-1.73,1.91-2.64
					c1.64-0.82,2.77-4.83,0.21-7.22l-38.25-35.64c-3.84-3.84-7.06-0.92-5.78,4.15c1.4,5.54,0,0,1.4,5.54
					c0.97,3.84,1.89,8.15,0.19,11.86c-17.66,38.6,0.01,0-17.66,38.6c-1.59,3.48-2.56,3.46-6.92,3.46c-3.33,0-4.53,3.76-2.97,5.23
					c0,0,13.73,12.68,15.63,14.57c1.9,1.9,4.48-1.72,2.73-5.8c-1.72-4.02-1.72-4.02,1.46-10.98l28.18,26.28c0,0,0,0,0.7,5.97
					c0.31,2.64-0.05,3.27-4.41,3.27c-3.33,0-4.53,3.76-2.96,5.23c0,0,36.13,33.57,38.03,35.46l-0.19-0.28
					C315.64,345.01,318.23,341.4,316.48,337.32z M258.29,258.71l14.88-32.51c1.44,1.48,1.77,2.85,2.25,6.49l5.56,47.17
					L258.29,258.71z"/>
				<g>
					<path d="M210.75,183.78c-7.4,1.14-7.57,3.53-7.32,6.93c0.79,11.08-1.81,16.45-9.71,16.45c-9.79,0-14.33-9.98-13.26-47.44
						c0.2-7.02,3.82-13.33,10.79-13.33c6.97,0,10.13,8.63,11.6,17.45c0.57,3.36,1.93,5.79,9.33,6.93c7.37,1.13,8.61-1.74,8.52-4.84
						c-4.3-26.43-17.98-37.92-36.51-37.92c-20.38,0-36.91,15.27-36.91,45.88c0,30.61,16.53,45.88,36.91,45.88
						c16.39,0,28.05-6.97,35.1-29.65C219.92,186.65,219.25,182.47,210.75,183.78z"/>
				</g>
				<path d="M389.2,331.06c0-3.02,2.58-3.54,4.57-4.14c1.97-0.59,3.29-4.24,0.25-7.28l-32.46-30.35c-3.84-3.84-7.38,1.04-5.05,5.72
					c2.31,4.63,5.17,10.7,5.17,16.31v60.6c0,3.02-2.59,3.55-4.57,4.14c-1.97,0.59-3.29,4.24-0.25,7.28l32.46,30.36
					c3.84,3.84,7.38-1.05,5.05-5.72c-2.31-4.63-5.17-10.7-5.17-16.31V331.06z"/>
				<path d="M144.03,128.12c0,4.57-3.7,8.27-8.27,8.27c-4.56,0-8.27-3.7-8.27-8.27c0-4.57,3.71-8.27,8.27-8.27
					C140.33,119.85,144.03,123.56,144.03,128.12z"/>
				<path d="M239.79,217.25c0,4.57-3.7,8.27-8.27,8.27c-4.57,0-8.27-3.7-8.27-8.27c0-4.57,3.71-8.27,8.27-8.27
					C236.09,208.98,239.79,212.68,239.79,217.25z"/>
				<path d="M343.48,314.01c0,4.57-3.7,8.27-8.27,8.27c-4.57,0-8.27-3.71-8.27-8.27c0-4.57,3.7-8.27,8.27-8.27
					C339.78,305.74,343.48,309.44,343.48,314.01z"/>
				<path d="M424.53,389.6c0,4.57-3.71,8.27-8.27,8.27c-4.57,0-8.27-3.7-8.27-8.27c0-4.57,3.71-8.27,8.27-8.27
					C420.83,381.33,424.53,385.04,424.53,389.6z"/>
			</g>
		</g>
	</g>
</g>
</svg>
